<svg xmlns="http://www.w3.org/2000/svg" xmlns:xlink="http://www.w3.org/1999/xlink" width="42" height="42" viewBox="0 0 42 42">
  <defs>
    <clipPath id="clip-path">
      <rect id="矩形_5803" data-name="矩形 5803" width="34.512" height="34.512" fill="#9598a5"/>
    </clipPath>
  </defs>
  <g id="组_10351" data-name="组 10351" transform="translate(-337 -534)">
    <g id="矩形_3521" data-name="矩形 3521" transform="translate(337 534)" fill="#fff" stroke="#707070" stroke-width="1" opacity="0">
      <rect width="42" height="42" stroke="none"/>
      <rect x="0.5" y="0.5" width="41" height="41" fill="none"/>
    </g>
    <g id="组_12721" data-name="组 12721" transform="translate(340.744 537.743)">
      <g id="组_12720" data-name="组 12720" clip-path="url(#clip-path)">
        <path id="路径_9524" data-name="路径 9524" d="M17.237,0a16.666,16.666,0,0,1,6.729,1.369,17.833,17.833,0,0,1,5.495,3.7,17.167,17.167,0,0,1,3.7,5.476,16.872,16.872,0,0,1,1.35,6.729,16.734,16.734,0,0,1-1.35,6.71,17.365,17.365,0,0,1-9.2,9.178,16.872,16.872,0,0,1-6.729,1.35,16.734,16.734,0,0,1-6.71-1.35A17.416,17.416,0,0,1,1.35,23.985,16.734,16.734,0,0,1,0,17.275a16.871,16.871,0,0,1,1.35-6.729,17.167,17.167,0,0,1,3.7-5.476,17.9,17.9,0,0,1,5.476-3.7A16.53,16.53,0,0,1,17.237,0m.038,29.075a2.277,2.277,0,0,0,1.677-.675,2.231,2.231,0,0,0,.675-1.639,2.352,2.352,0,1,0-4.7,0A2.231,2.231,0,0,0,15.6,28.4a2.277,2.277,0,0,0,1.677.675m1.967-9.486a1.718,1.718,0,0,1,.771-1.311q.81-.694,1.812-1.543a13.7,13.7,0,0,0,1.851-1.909,4.194,4.194,0,0,0,.925-2.448,8.39,8.39,0,0,0-.308-2.815,5.517,5.517,0,0,0-1.273-2.256,6.257,6.257,0,0,0-2.294-1.5,8.9,8.9,0,0,0-3.3-.559,8.286,8.286,0,0,0-3.914.829A8.151,8.151,0,0,0,10.99,8.078a7.171,7.171,0,0,0-1.35,2.429,6.408,6.408,0,0,0-.347,2.1,1.833,1.833,0,0,0,.636,1.465,2.17,2.17,0,0,0,1.292.482,2.066,2.066,0,0,0,1.273-.386A1.346,1.346,0,0,0,13.072,13a3.011,3.011,0,0,1,.289-1.138,5.463,5.463,0,0,1,.79-1.292,4.535,4.535,0,0,1,1.215-1.041,3.071,3.071,0,0,1,1.6-.424,4.2,4.2,0,0,1,2.776.868,2.511,2.511,0,0,1,.964,2.179,2.1,2.1,0,0,1-.386,1.215,5.843,5.843,0,0,1-.983,1.08q-.6.521-1.272,1.041t-1.273,1.08a5.927,5.927,0,0,0-1,1.215,2.951,2.951,0,0,0-.443,1.427l.038,1.465a1.526,1.526,0,0,0,.54,1.1,2.108,2.108,0,0,0,1.427.559,1.991,1.991,0,0,0,1.407-.578,1.592,1.592,0,0,0,.482-1.234Z" fill="#9598a5"/>
      </g>
    </g>
  </g>
</svg>
